<svg width="100%" height="100%" viewBox="0 0 132 28" fill="none" xmlns="http://www.w3.org/2000/svg">
<path fill-rule="evenodd" clip-rule="evenodd" d="M28 14C28 6.26801 21.732 0 14 0C6.26801 0 0 6.26801 0 14C0 21.732 6.26801 28 14 28C21.732 28 28 21.732 28 14ZM22.4 14C22.4 14.9818 22.2316 15.9242 21.922 16.8H16.8467V14C16.8467 12.4536 15.593 11.2 14.0467 11.2C12.5003 11.2 11.2467 12.4536 11.2467 14C11.2467 15.5464 12.5003 16.8 14.0467 16.8H16.8467V21.9054C15.9577 22.2255 14.9992 22.4 14 22.4C9.36077 22.4 5.6 18.6392 5.6 14C5.6 9.36077 9.36077 5.6 14 5.6C18.6392 5.6 22.4 9.36077 22.4 14Z" fill="white"></path>
<path d="M39.1284 20.114C37.9463 20.114 36.9423 19.8506 36.1162 19.3236C35.2902 18.7967 34.6565 18.0739 34.215 17.1553C33.7806 16.2367 33.5599 15.1935 33.5527 14.0257C33.5599 12.8365 33.7877 11.7862 34.2363 10.8747C34.685 9.95613 35.3258 9.23693 36.159 8.7171C36.9921 8.19728 37.9926 7.93737 39.1604 7.93737C40.4208 7.93737 41.4961 8.25069 42.3862 8.87732C43.2834 9.50396 43.8744 10.362 44.1593 11.4515L41.9376 12.0924C41.7168 11.4444 41.3536 10.9424 40.8481 10.5863C40.3496 10.2232 39.7764 10.0416 39.1284 10.0416C38.3949 10.0416 37.7932 10.216 37.3232 10.565C36.8533 10.9068 36.5043 11.3767 36.2765 11.9749C36.0486 12.5731 35.9311 13.2567 35.924 14.0257C35.9311 15.2149 36.2017 16.1762 36.7358 16.9097C37.2769 17.6431 38.0745 18.0098 39.1284 18.0098C39.8476 18.0098 40.4279 17.8461 40.8694 17.5185C41.318 17.1838 41.6598 16.7067 41.8948 16.0872L44.1593 16.6213C43.7819 17.7464 43.1588 18.6115 42.29 19.2168C41.4213 19.815 40.3674 20.114 39.1284 20.114Z" fill="white"></path>
<path d="M49.2334 20.114C48.3789 20.114 47.6632 19.9574 47.0864 19.6441C46.5097 19.3236 46.0717 18.9035 45.7726 18.3837C45.4807 17.8567 45.3347 17.2799 45.3347 16.6533C45.3347 16.0694 45.438 15.5567 45.6445 15.1152C45.851 14.6737 46.1572 14.2999 46.5631 13.9937C46.9689 13.6803 47.4674 13.4276 48.0584 13.2353C48.5711 13.0858 49.1515 12.954 49.7995 12.8401C50.4475 12.7262 51.1275 12.6193 51.8396 12.5196C52.5588 12.42 53.2709 12.3203 53.9759 12.2206L53.1641 12.6692C53.1783 11.7648 52.9861 11.0955 52.5873 10.6611C52.1957 10.2196 51.5192 9.99886 50.5579 9.99886C49.9526 9.99886 49.3972 10.1413 48.8916 10.4261C48.386 10.7038 48.0335 11.1667 47.8341 11.8147L45.7513 11.1738C46.0361 10.184 46.5773 9.39715 47.3748 8.81323C48.1795 8.22932 49.2476 7.93737 50.5792 7.93737C51.6118 7.93737 52.509 8.11539 53.2709 8.47143C54.04 8.82035 54.6025 9.37578 54.9586 10.1377C55.1437 10.5151 55.2576 10.9139 55.3004 11.334C55.3431 11.7542 55.3644 12.2063 55.3644 12.6905V19.7936H53.3884V17.1553L53.7729 17.4971C53.2958 18.3801 52.687 19.0388 51.9464 19.4732C51.213 19.9004 50.3086 20.114 49.2334 20.114ZM49.6286 18.2875C50.2623 18.2875 50.8071 18.1772 51.2628 17.9564C51.7186 17.7286 52.0853 17.4402 52.363 17.0912C52.6407 16.7423 52.8223 16.3792 52.9078 16.0017C53.0288 15.6599 53.0965 15.2754 53.1107 14.8482C53.1321 14.4209 53.1427 14.0791 53.1427 13.8228L53.8691 14.0898C53.1641 14.1966 52.5232 14.2927 51.9464 14.3782C51.3696 14.4636 50.8463 14.5491 50.3763 14.6345C49.9134 14.7129 49.5004 14.809 49.1373 14.9229C48.8311 15.0297 48.5569 15.1579 48.3148 15.3075C48.0798 15.457 47.8911 15.6386 47.7487 15.8522C47.6134 16.0658 47.5457 16.3257 47.5457 16.6319C47.5457 16.931 47.6205 17.2087 47.77 17.4651C47.9196 17.7143 48.1475 17.9137 48.4536 18.0632C48.7598 18.2128 49.1515 18.2875 49.6286 18.2875Z" fill="white"></path>
<path d="M63.3399 20.114C62.2361 20.114 61.3104 19.847 60.5627 19.313C59.815 18.7718 59.2489 18.0419 58.8644 17.1233C58.4799 16.2047 58.2876 15.1686 58.2876 14.015C58.2876 12.8614 58.4763 11.8254 58.8537 10.9068C59.2383 9.98818 59.8008 9.26541 60.5414 8.73846C61.2891 8.2044 62.2077 7.93737 63.2971 7.93737C64.3795 7.93737 65.3124 8.2044 66.0956 8.73846C66.8861 9.26541 67.4949 9.98818 67.9222 10.9068C68.3494 11.8182 68.563 12.8543 68.563 14.015C68.563 15.1686 68.3494 16.2083 67.9222 17.134C67.502 18.0526 66.9003 18.7789 66.117 19.313C65.3408 19.847 64.4151 20.114 63.3399 20.114ZM57.9138 24.9206V8.25781H59.9005V16.5572H60.1568V24.9206H57.9138ZM63.0301 18.0953C63.7422 18.0953 64.3297 17.9137 64.7925 17.5505C65.2625 17.1874 65.6114 16.6996 65.8393 16.0872C66.0743 15.4677 66.1918 14.777 66.1918 14.015C66.1918 13.2602 66.0743 12.5766 65.8393 11.9642C65.6114 11.3518 65.2589 10.864 64.7819 10.5009C64.3048 10.1377 63.6959 9.95613 62.9553 9.95613C62.2575 9.95613 61.6807 10.127 61.225 10.4688C60.7764 10.8106 60.4417 11.2877 60.2209 11.9001C60.0073 12.5125 59.9005 13.2175 59.9005 14.015C59.9005 14.8126 60.0073 15.5175 60.2209 16.1299C60.4346 16.7423 60.7728 17.223 61.2357 17.5719C61.6985 17.9208 62.2967 18.0953 63.0301 18.0953Z" fill="white"></path>
<path d="M77.3088 19.7936C76.5825 19.936 75.8704 19.9966 75.1726 19.9752C74.4747 19.9538 73.8517 19.8185 73.3034 19.5693C72.7551 19.3201 72.342 18.9284 72.0643 18.3944C71.8151 17.9173 71.6798 17.433 71.6584 16.9417C71.6442 16.4432 71.6371 15.8807 71.6371 15.2541V5.05342H73.8801V15.1472C73.8801 15.6101 73.8837 16.0124 73.8908 16.3542C73.9051 16.696 73.9798 16.9844 74.1151 17.2194C74.3715 17.6609 74.7774 17.9137 75.3328 17.9778C75.8954 18.0348 76.554 18.0098 77.3088 17.903V19.7936ZM69.426 10.0523V8.25781H77.3088V10.0523H69.426Z" fill="white"></path>
<path d="M79.741 6.36722V4.19891H81.9734V6.36722H79.741ZM79.741 19.7936V8.25781H81.9734V19.7936H79.741Z" fill="white"></path>
<path d="M87.424 19.7936L83.8992 8.24713L86.1102 8.25781L88.5242 16.1726L90.9595 8.25781H92.8822L95.3175 16.1726L97.7315 8.25781H99.9318L96.407 19.7936H94.6126L91.9209 11.4408L89.2185 19.7936H87.424Z" fill="white"></path>
<path d="M104.242 20.114C103.388 20.114 102.672 19.9574 102.095 19.6441C101.518 19.3236 101.08 18.9035 100.781 18.3837C100.489 17.8567 100.343 17.2799 100.343 16.6533C100.343 16.0694 100.447 15.5567 100.653 15.1152C100.86 14.6737 101.166 14.2999 101.572 13.9937C101.978 13.6803 102.476 13.4276 103.067 13.2353C103.58 13.0858 104.16 12.954 104.808 12.8401C105.456 12.7262 106.136 12.6193 106.848 12.5196C107.568 12.42 108.28 12.3203 108.985 12.2206L108.173 12.6692C108.187 11.7648 107.995 11.0955 107.596 10.6611C107.204 10.2196 106.528 9.99886 105.567 9.99886C104.961 9.99886 104.406 10.1413 103.9 10.4261C103.395 10.7038 103.042 11.1667 102.843 11.8147L100.76 11.1738C101.045 10.184 101.586 9.39715 102.384 8.81323C103.188 8.22932 104.256 7.93737 105.588 7.93737C106.62 7.93737 107.518 8.11539 108.28 8.47143C109.049 8.82035 109.611 9.37578 109.967 10.1377C110.152 10.5151 110.266 10.9139 110.309 11.334C110.352 11.7542 110.373 12.2063 110.373 12.6905V19.7936H108.397V17.1553L108.782 17.4971C108.305 18.3801 107.696 19.0388 106.955 19.4732C106.222 19.9004 105.317 20.114 104.242 20.114ZM104.637 18.2875C105.271 18.2875 105.816 18.1772 106.272 17.9564C106.727 17.7286 107.094 17.4402 107.372 17.0912C107.649 16.7423 107.831 16.3792 107.916 16.0017C108.037 15.6599 108.105 15.2754 108.119 14.8482C108.141 14.4209 108.151 14.0791 108.151 13.8228L108.878 14.0898C108.173 14.1966 107.532 14.2927 106.955 14.3782C106.378 14.4636 105.855 14.5491 105.385 14.6345C104.922 14.7129 104.509 14.809 104.146 14.9229C103.84 15.0297 103.566 15.1579 103.323 15.3075C103.088 15.457 102.9 15.6386 102.757 15.8522C102.622 16.0658 102.554 16.3257 102.554 16.6319C102.554 16.931 102.629 17.2087 102.779 17.4651C102.928 17.7143 103.156 17.9137 103.462 18.0632C103.769 18.2128 104.16 18.2875 104.637 18.2875Z" fill="white"></path>
<path d="M119.534 19.7936C118.808 19.936 118.096 19.9966 117.398 19.9752C116.7 19.9538 116.077 19.8185 115.529 19.5693C114.98 19.3201 114.567 18.9284 114.29 18.3944C114.04 17.9173 113.905 17.433 113.884 16.9417C113.87 16.4432 113.862 15.8807 113.862 15.2541V5.05342H116.105V15.1472C116.105 15.6101 116.109 16.0124 116.116 16.3542C116.13 16.696 116.205 16.9844 116.34 17.2194C116.597 17.6609 117.003 17.9137 117.558 17.9778C118.121 18.0348 118.779 18.0098 119.534 17.903V19.7936ZM111.651 10.0523V8.25781H119.534V10.0523H111.651Z" fill="white"></path>
<path d="M126.327 20.114C125.18 20.114 124.173 19.8648 123.304 19.3664C122.442 18.8608 121.769 18.1594 121.285 17.2621C120.808 16.3578 120.569 15.311 120.569 14.1218C120.569 12.8614 120.804 11.7684 121.274 10.8427C121.752 9.91697 122.414 9.20132 123.261 8.69574C124.109 8.19016 125.095 7.93737 126.22 7.93737C127.395 7.93737 128.395 8.21152 129.221 8.75983C130.047 9.30101 130.663 10.0736 131.069 11.0777C131.482 12.0817 131.646 13.2745 131.561 14.6559H129.328V13.8441C129.314 12.5054 129.058 11.5156 128.559 10.8747C128.068 10.2338 127.316 9.91341 126.305 9.91341C125.187 9.91341 124.347 10.2659 123.785 10.9709C123.222 11.6758 122.941 12.6941 122.941 14.0257C122.941 15.2932 123.222 16.2759 123.785 16.9737C124.347 17.6645 125.159 18.0098 126.22 18.0098C126.918 18.0098 127.519 17.8532 128.025 17.5399C128.538 17.2194 128.936 16.7637 129.221 16.1726L131.411 16.8669C130.962 17.8995 130.282 18.7006 129.371 19.2702C128.459 19.8328 127.445 20.114 126.327 20.114ZM122.214 14.6559V12.9149H130.45V14.6559H122.214Z" fill="white"></path>
</svg>