<svg preserveAspectRatio="xMidYMid meet" data-bbox="1.12 1.82 128.88 18.073" viewBox="0 0 131.11 19.81" xmlns="http://www.w3.org/2000/svg" data-type="ugc" role="img" aria-label="The Future Fox logo in green">
    <g>
        <path d="M113.88 16.51v-.21c0-.07 1.81-3.76 2-6.54a10.51 10.51 0 0 1-2.65-.84 4.35 4.35 0 0 1-2.43-4.11 8.26 8.26 0 0 1 .35-2.71l.06-.28.07.21a5.09 5.09 0 0 0 .77 1.6 5.29 5.29 0 0 0 1 .77 6.45 6.45 0 0 1 2.78 3.48 6.23 6.23 0 0 1 .17 1.74 12.57 12.57 0 0 0 4.67-.14c1.74-.35 3.83-1.18 4.52-2.09a10.92 10.92 0 0 0 1.46-2.3c0-.07.14-.28.21-.21s0 .28 0 .28-.28 1.53.7 2a8.4 8.4 0 0 0 1.95.56c.42.07.49.07.49.21a.07.07 0 0 1-.07.07c-.07.07-.28.35-.42.35a11.28 11.28 0 0 0-3.34 1 11.33 11.33 0 0 0-2.58 3.76 4.07 4.07 0 0 1 1.18 3.2h-.14a4.81 4.81 0 0 0-.2-1.67 3.65 3.65 0 0 0-.84-1.32 28.36 28.36 0 0 0-1.25 3.06l-.14-.07a33 33 0 0 1 1.25-3.13 3.8 3.8 0 0 0-1.6-.77c-3.2-.76-7.66 3.9-7.73 3.9s-.24.2-.24.2zM116 9.76a14.76 14.76 0 0 1-.7 3.41c-.41 1.18-.83 2.23-1 2.79a16 16 0 0 1 2.37-2c2.09-1.47 3.83-2 5.22-1.68a3.7 3.7 0 0 1 1.67.77 12.63 12.63 0 0 1 2.65-3.76 9.71 9.71 0 0 1 3.41-1.11c.07 0 .21-.14.28-.21s-.21-.07-.28-.07a10.75 10.75 0 0 1-2-.63 1.86 1.86 0 0 1-.86-1.27v-.63a23.22 23.22 0 0 1-1.39 2.09 8.7 8.7 0 0 1-4.53 2.16 12 12 0 0 1-4.84.14zm-4.88-7.38a9.71 9.71 0 0 0-.27 2.43 4.2 4.2 0 0 0 2.36 4 10.06 10.06 0 0 0 2.58.84 5.17 5.17 0 0 0-.21-1.6 6.52 6.52 0 0 0-2.78-3.42c-.35-.27-.7-.48-1-.76s-.5-1.15-.64-1.49z" stroke="#63cc83" stroke-miterlimit="10" stroke-width=".25" fill="#63cc83"></path>
        <text transform="translate(1.12 16.44)" font-size="15.87" font-family="Poppins-Medium,Poppins" font-weight="500" fill="#63cc83">the future fox</text>
    </g>
</svg>